<svg width="34" height="33" viewBox="0 0 34 33" fill="none" xmlns="http://www.w3.org/2000/svg">
<path d="M33.9323 12.5786C33.8555 12.3351 33.7116 12.1182 33.5172 11.9528C33.3225 11.7875 33.0854 11.6804 32.8327 11.6439L22.8995 10.1961L18.4461 1.19756C18.3192 0.98493 18.1394 0.808845 17.9243 0.686568C17.7089 0.564291 17.4657 0.5 17.2182 0.5C16.9706 0.5 16.7274 0.564291 16.512 0.686568C16.2969 0.808845 16.1169 0.98493 15.9902 1.19756L11.5368 10.1961L1.60361 11.6439C1.35092 11.6804 1.11368 11.7875 0.919156 11.9528C0.724635 12.1182 0.580732 12.3351 0.503997 12.5786C0.422076 12.8211 0.409559 13.0819 0.467857 13.3312C0.526136 13.5806 0.652903 13.8086 0.833881 13.9898L8.05468 20.9907L6.35028 30.8872C6.30708 31.142 6.33562 31.4037 6.43271 31.6432C6.52983 31.8828 6.69164 32.0906 6.90009 32.2434C7.10887 32.3921 7.35507 32.4795 7.61091 32.4958C7.86678 32.5119 8.12205 32.4562 8.34791 32.3351L17.2182 27.6617L26.1067 32.3351C26.3033 32.4428 26.5238 32.4996 26.7481 32.5C27.0364 32.4965 27.3172 32.4073 27.5545 32.2434C27.7629 32.0906 27.9247 31.8828 28.0219 31.6432C28.119 31.4037 28.1476 31.142 28.1043 30.8872L26.3816 20.9907L33.5841 13.9898C33.7683 13.8106 33.8984 13.5833 33.96 13.3339C34.0215 13.0845 34.0118 12.8228 33.9323 12.5786Z" fill="url(#paint0_linear_11_9)"/>
<defs>
<linearGradient id="paint0_linear_11_9" x1="0.373988" y1="0.5" x2="39.323" y2="11.3298" gradientUnits="userSpaceOnUse">
<stop stop-color="#F266AB"/>
<stop offset="1" stop-color="#DD3C8B"/>
</linearGradient>
</defs>
</svg>
