<svg width="34" height="33" viewBox="0 0 34 33" fill="none" xmlns="http://www.w3.org/2000/svg">
<path d="M33.4554 12.729L33.4569 12.7334C33.5075 12.889 33.5137 13.0556 33.4745 13.2141C33.4353 13.373 33.3525 13.5175 33.2354 13.6315L26.0331 20.6322L25.8437 20.8163L25.889 21.0765L27.6114 30.9709C27.6114 30.9712 27.6115 30.9715 27.6115 30.9718C27.639 31.1347 27.6207 31.302 27.5585 31.4553C27.4971 31.6068 27.3954 31.7384 27.2645 31.836C27.1113 31.9401 26.931 31.9971 26.7456 32C26.6064 31.9992 26.4694 31.9637 26.347 31.8966L26.347 31.8965L26.3394 31.8925L17.4508 27.2191L17.2179 27.0967L16.9851 27.2193L8.11484 31.8927L8.11158 31.8944C7.96775 31.9716 7.80521 32.007 7.64237 31.9968C7.48073 31.9864 7.32516 31.9315 7.19294 31.8381C7.06067 31.7404 6.95794 31.6079 6.89609 31.4554C6.83391 31.302 6.8156 31.1345 6.84315 30.9714C6.84318 30.9712 6.84321 30.971 6.84324 30.9708L8.54743 21.0756L8.59222 20.8155L8.40273 20.6317L1.18518 13.634C1.07125 13.519 0.991535 13.3749 0.954743 13.2174L0.954716 13.2173C0.917641 13.0588 0.925602 12.8928 0.977709 12.7386L0.977808 12.7386L0.980877 12.7289C1.02932 12.5751 1.12018 12.4382 1.24298 12.3338C1.36579 12.2294 1.51557 12.1618 1.6751 12.1388L1.67573 12.1387L11.6089 10.6908L11.8685 10.653L11.9849 10.4179L16.4288 1.43861C16.5104 1.30728 16.6239 1.1981 16.7589 1.12136C16.8991 1.04178 17.0572 1 17.2182 1C17.3791 1 17.5372 1.04178 17.6774 1.12136C17.8122 1.19799 17.9256 1.30712 18.0075 1.43876L22.4514 10.4179L22.5677 10.653L22.8274 10.6908L32.7606 12.1387L32.7612 12.1388C32.9207 12.1618 33.0704 12.2294 33.1935 12.3339C33.3161 12.4383 33.4069 12.5752 33.4554 12.729Z" stroke="#E699BF"/>
</svg>
